<svg width="224" height="35" viewBox="0 0 224 35" fill="none" xmlns="http://www.w3.org/2000/svg">
<circle cx="17.5" cy="17.5" r="17.5" fill="#D5D8DF"/>
<path d="M10.1319 14.775C9.67232 14.4165 9.00157 14.7422 9.00139 15.325C9.00085 17.1444 9 20.2713 9 22.13C9 23.79 10.34 25.13 12 25.13H24C25.66 25.13 27 23.79 27 22.13C27 19.8499 27.0511 17.562 27.0248 15.2799C27.0182 14.71 26.3669 14.3966 25.913 14.7413L21.3407 18.2134L23.9233 20.1564C24.2101 20.3723 24.2677 20.7798 24.0519 21.0666C23.836 21.3535 23.4285 21.4111 23.1417 21.1953L20.2646 19.0306L20.132 19.1313C18.8131 20.1328 16.9854 20.1209 15.6796 19.1024L15.5619 19.0106L15.5606 19.0116L12.6584 21.1953C12.3715 21.4111 11.964 21.3535 11.7482 21.0666C11.5323 20.7798 11.5899 20.3723 11.8768 20.1564L14.5003 18.1825L10.1319 14.775Z" fill="#7E7E7E"/>
<path d="M9.72052 12.047C9.4959 12.3091 9.57889 12.6949 9.85106 12.9072L16.4792 18.0774C17.3199 18.7331 18.4967 18.7408 19.3458 18.096L26.1525 12.927C26.4286 12.7173 26.5159 12.3304 26.292 12.0657C25.7406 11.4135 24.9166 11 24 11H12C11.0867 11 10.2702 11.4056 9.72052 12.047Z" fill="#7E7E7E"/>
<path d="M52.6818 21.1932C54.125 21.1932 54.9375 20.4602 55.2614 19.8068H55.3295V21H56.9886V15.2045C56.9886 12.6648 54.9886 12.1591 53.6023 12.1591C52.0227 12.1591 50.5682 12.7955 50 14.3864L51.5966 14.75C51.8466 14.1307 52.483 13.5341 53.625 13.5341C54.7216 13.5341 55.2841 14.108 55.2841 15.0966V15.1364C55.2841 15.7557 54.6477 15.7443 53.0795 15.9261C51.4261 16.1193 49.733 16.5511 49.733 18.5341C49.733 20.25 51.0227 21.1932 52.6818 21.1932ZM53.0511 19.8295C52.0909 19.8295 51.3977 19.3977 51.3977 18.5568C51.3977 17.6477 52.2045 17.3239 53.1875 17.1932C53.7386 17.1193 55.0455 16.9716 55.2898 16.7273V17.8523C55.2898 18.8864 54.4659 19.8295 53.0511 19.8295ZM64.7798 17.3807C64.7855 18.8636 63.6832 19.5682 62.7287 19.5682C61.6776 19.5682 60.9503 18.8068 60.9503 17.6193V12.2727H59.2514V17.8239C59.2514 19.9886 60.4389 21.1136 62.1151 21.1136C63.4276 21.1136 64.3196 20.4205 64.723 19.4886H64.8139V21H66.4844V12.2727H64.7798V17.3807ZM72.8409 12.2727H71.0511V10.1818H69.3523V12.2727H68.0739V13.6364H69.3523V18.7898C69.3466 20.375 70.5568 21.142 71.8977 21.1136C72.4375 21.108 72.8011 21.0057 73 20.9318L72.6932 19.5284C72.5795 19.5511 72.3693 19.6023 72.0966 19.6023C71.5455 19.6023 71.0511 19.4205 71.0511 18.4375V13.6364H72.8409V12.2727ZM78.3026 21.1761C80.7628 21.1761 82.3707 19.375 82.3707 16.6761C82.3707 13.9602 80.7628 12.1591 78.3026 12.1591C75.8423 12.1591 74.2344 13.9602 74.2344 16.6761C74.2344 19.375 75.8423 21.1761 78.3026 21.1761ZM78.3082 19.75C76.7003 19.75 75.9503 18.3466 75.9503 16.6705C75.9503 15 76.7003 13.5795 78.3082 13.5795C79.9048 13.5795 80.6548 15 80.6548 16.6705C80.6548 18.3466 79.9048 19.75 78.3082 19.75ZM90.8068 14.4034C90.4545 13.0455 89.392 12.1591 87.5057 12.1591C85.5341 12.1591 84.1364 13.1989 84.1364 14.7443C84.1364 15.983 84.8864 16.8068 86.5227 17.1705L88 17.4943C88.8409 17.6818 89.233 18.0568 89.233 18.6023C89.233 19.2784 88.5114 19.8068 87.3977 19.8068C86.3807 19.8068 85.7273 19.3693 85.5227 18.5114L83.8807 18.7614C84.1648 20.3068 85.4489 21.1761 87.4091 21.1761C89.517 21.1761 90.9773 20.0568 90.9773 18.4773C90.9773 17.2443 90.1932 16.483 88.5909 16.1136L87.2045 15.7955C86.2443 15.5682 85.8295 15.2443 85.8352 14.6534C85.8295 13.983 86.5568 13.5057 87.5227 13.5057C88.5795 13.5057 89.0682 14.0909 89.267 14.6761L90.8068 14.4034ZM92.8452 24.2727H94.544V19.642H94.6463C94.9531 20.1989 95.5781 21.1705 97.169 21.1705C99.2827 21.1705 100.817 19.4773 100.817 16.6534C100.817 13.8239 99.2599 12.1591 97.152 12.1591C95.5327 12.1591 94.9474 13.1477 94.6463 13.6875H94.5043V12.2727H92.8452V24.2727ZM94.5099 16.6364C94.5099 14.8125 95.3054 13.6023 96.7884 13.6023C98.3281 13.6023 99.1009 14.9034 99.1009 16.6364C99.1009 18.3864 98.3054 19.7216 96.7884 19.7216C95.3281 19.7216 94.5099 18.4716 94.5099 16.6364ZM105.26 21.1932C106.703 21.1932 107.516 20.4602 107.839 19.8068H107.908V21H109.567V15.2045C109.567 12.6648 107.567 12.1591 106.18 12.1591C104.601 12.1591 103.146 12.7955 102.578 14.3864L104.175 14.75C104.425 14.1307 105.061 13.5341 106.203 13.5341C107.3 13.5341 107.862 14.108 107.862 15.0966V15.1364C107.862 15.7557 107.226 15.7443 105.658 15.9261C104.004 16.1193 102.311 16.5511 102.311 18.5341C102.311 20.25 103.601 21.1932 105.26 21.1932ZM105.629 19.8295C104.669 19.8295 103.976 19.3977 103.976 18.5568C103.976 17.6477 104.783 17.3239 105.766 17.1932C106.317 17.1193 107.624 16.9716 107.868 16.7273V17.8523C107.868 18.8864 107.044 19.8295 105.629 19.8295ZM115.506 21.1761C117.568 21.1761 118.903 19.9375 119.091 18.2386H117.438C117.222 19.1818 116.489 19.7386 115.517 19.7386C114.08 19.7386 113.153 18.5398 113.153 16.6364C113.153 14.767 114.097 13.5909 115.517 13.5909C116.597 13.5909 117.256 14.2727 117.438 15.0909H119.091C118.909 13.3295 117.472 12.1591 115.489 12.1591C113.028 12.1591 111.438 14.0114 111.438 16.6761C111.438 19.3068 112.972 21.1761 115.506 21.1761ZM124.669 21.1761C126.572 21.1761 127.919 20.2386 128.305 18.8182L126.697 18.5284C126.391 19.3523 125.652 19.7727 124.686 19.7727C123.232 19.7727 122.254 18.8295 122.209 17.1477H128.413V16.5455C128.413 13.392 126.527 12.1591 124.55 12.1591C122.118 12.1591 120.516 14.0114 120.516 16.6932C120.516 19.4034 122.095 21.1761 124.669 21.1761ZM122.214 15.875C122.283 14.6364 123.18 13.5625 124.561 13.5625C125.879 13.5625 126.743 14.5398 126.749 15.875H122.214ZM137.304 24.1648C138.616 24.1648 140.134 23.8068 140.838 23.4773L140.44 22.233C139.963 22.4034 138.651 22.8182 137.378 22.8182C133.554 22.8182 131.503 20.7102 131.503 16.9375C131.503 13.3239 133.531 10.9886 137.168 10.9886C140.491 10.9886 142.474 13.125 142.469 16.0114C142.474 18.4773 142.156 19.5852 141.122 19.5852C140.537 19.5852 140.213 19.108 140.213 18.5114V13.2386H138.815V13.875H138.741C138.571 13.375 137.582 12.9261 136.395 13.0682C134.753 13.2614 133.344 14.6193 133.344 16.858C133.344 19.1932 134.537 20.7557 136.452 20.8295C137.747 20.8864 138.588 20.2841 138.855 19.6136H138.923C139.06 20.5284 140.048 20.9318 141.02 20.8977C143.446 20.8523 143.906 18.4659 143.906 16.0682C143.906 12.6477 141.565 9.67045 137.224 9.67045C132.673 9.67045 129.997 12.4489 129.991 16.9261C129.997 21.5341 132.605 24.1648 137.304 24.1648ZM136.781 19.4375C135.298 19.4375 134.787 18.1648 134.781 16.7898C134.787 15.483 135.52 14.4432 136.804 14.4432C138.196 14.4432 138.821 15.0568 138.827 16.7841C138.832 18.5568 138.259 19.4375 136.781 19.4375ZM149.442 24.4545C151.663 24.4545 153.379 23.4375 153.379 21.1932V12.2727H151.714V13.6875H151.589C151.288 13.1477 150.686 12.1591 149.061 12.1591C146.953 12.1591 145.402 13.8239 145.402 16.6023C145.402 19.3864 146.987 20.8693 149.05 20.8693C150.652 20.8693 151.271 19.9659 151.578 19.4091H151.686V21.125C151.686 22.4943 150.749 23.0852 149.459 23.0852C148.044 23.0852 147.493 22.375 147.192 21.875L145.732 22.4773C146.192 23.5455 147.357 24.4545 149.442 24.4545ZM149.425 19.4602C147.908 19.4602 147.118 18.2955 147.118 16.5795C147.118 14.9034 147.891 13.6023 149.425 13.6023C150.908 13.6023 151.703 14.8125 151.703 16.5795C151.703 18.3807 150.891 19.4602 149.425 19.4602ZM155.658 21H157.357V15.6193C157.357 14.4432 158.18 13.625 159.146 13.625C160.089 13.625 160.743 14.25 160.743 15.1989V21H162.436V15.4375C162.436 14.3864 163.078 13.625 164.186 13.625C165.084 13.625 165.822 14.125 165.822 15.3068V21H167.521V15.1477C167.521 13.1534 166.408 12.1591 164.828 12.1591C163.572 12.1591 162.629 12.7614 162.209 13.6932H162.118C161.737 12.7386 160.936 12.1591 159.771 12.1591C158.618 12.1591 157.76 12.733 157.396 13.6932H157.288V12.2727H155.658V21ZM172.338 21.1932C173.781 21.1932 174.594 20.4602 174.918 19.8068H174.986V21H176.645V15.2045C176.645 12.6648 174.645 12.1591 173.259 12.1591C171.679 12.1591 170.224 12.7955 169.656 14.3864L171.253 14.75C171.503 14.1307 172.139 13.5341 173.281 13.5341C174.378 13.5341 174.94 14.108 174.94 15.0966V15.1364C174.94 15.7557 174.304 15.7443 172.736 15.9261C171.082 16.1193 169.389 16.5511 169.389 18.5341C169.389 20.25 170.679 21.1932 172.338 21.1932ZM172.707 19.8295C171.747 19.8295 171.054 19.3977 171.054 18.5568C171.054 17.6477 171.861 17.3239 172.844 17.1932C173.395 17.1193 174.702 16.9716 174.946 16.7273V17.8523C174.946 18.8864 174.122 19.8295 172.707 19.8295ZM178.908 21H180.607V12.2727H178.908V21ZM179.766 10.9261C180.351 10.9261 180.839 10.4716 180.839 9.91477C180.839 9.35795 180.351 8.89773 179.766 8.89773C179.175 8.89773 178.692 9.35795 178.692 9.91477C178.692 10.4716 179.175 10.9261 179.766 10.9261ZM184.591 9.36364H182.892V21H184.591V9.36364ZM187.996 21.108C188.615 21.108 189.132 20.6023 189.132 19.9716C189.132 19.3523 188.615 18.8409 187.996 18.8409C187.371 18.8409 186.859 19.3523 186.859 19.9716C186.859 20.6023 187.371 21.108 187.996 21.108ZM195.084 21.1761C197.146 21.1761 198.482 19.9375 198.669 18.2386H197.016C196.8 19.1818 196.067 19.7386 195.095 19.7386C193.658 19.7386 192.732 18.5398 192.732 16.6364C192.732 14.767 193.675 13.5909 195.095 13.5909C196.175 13.5909 196.834 14.2727 197.016 15.0909H198.669C198.487 13.3295 197.05 12.1591 195.067 12.1591C192.607 12.1591 191.016 14.0114 191.016 16.6761C191.016 19.3068 192.55 21.1761 195.084 21.1761ZM204.162 21.1761C206.622 21.1761 208.23 19.375 208.23 16.6761C208.23 13.9602 206.622 12.1591 204.162 12.1591C201.702 12.1591 200.094 13.9602 200.094 16.6761C200.094 19.375 201.702 21.1761 204.162 21.1761ZM204.168 19.75C202.56 19.75 201.81 18.3466 201.81 16.6705C201.81 15 202.56 13.5795 204.168 13.5795C205.764 13.5795 206.514 15 206.514 16.6705C206.514 18.3466 205.764 19.75 204.168 19.75ZM210.126 21H211.825V15.6193C211.825 14.4432 212.649 13.625 213.615 13.625C214.558 13.625 215.212 14.25 215.212 15.1989V21H216.905V15.4375C216.905 14.3864 217.547 13.625 218.655 13.625C219.553 13.625 220.291 14.125 220.291 15.3068V21H221.99V15.1477C221.99 13.1534 220.876 12.1591 219.297 12.1591C218.041 12.1591 217.098 12.7614 216.678 13.6932H216.587C216.206 12.7386 215.405 12.1591 214.24 12.1591C213.087 12.1591 212.229 12.733 211.865 13.6932H211.757V12.2727H210.126V21Z" fill="#4F4F4F"/>
<path d="M49 24.1989H223.121V25.4375H49V24.1989Z" fill="#4F4F4F"/>
<a href="mailto:autospace@gmail.com">
<rect fill="black" fill-opacity="0" y="0.318182" width="174.121" height="19.3636"/>
</a>
</svg>
