<svg width="145" height="35" viewBox="0 0 145 35" fill="none" xmlns="http://www.w3.org/2000/svg">
<circle cx="17.5" cy="17.5" r="17.5" fill="#D5D8DF"/>
<path fill-rule="evenodd" clip-rule="evenodd" d="M23.9799 10.1237C25.1796 9.60288 26.3971 10.8204 25.8763 12.0201L19.7494 26.1319C19.1728 27.4602 17.2171 27.2043 17.0017 25.7723L16.1568 20.1572C16.1324 19.995 16.005 19.8676 15.8428 19.8432L10.2277 18.9983C8.79575 18.7829 8.53981 16.8272 9.86806 16.2506L23.9799 10.1237Z" fill="#7E7E7E"/>
<path d="M57.1477 22.1648C58.4602 22.1648 59.9773 21.8068 60.6818 21.4773L60.2841 20.233C59.8068 20.4034 58.4943 20.8182 57.2216 20.8182C53.3977 20.8182 51.3466 18.7102 51.3466 14.9375C51.3466 11.3239 53.375 8.98864 57.0114 8.98864C60.3352 8.98864 62.3182 11.125 62.3125 14.0114C62.3182 16.4773 62 17.5852 60.9659 17.5852C60.3807 17.5852 60.0568 17.108 60.0568 16.5114V11.2386H58.6591V11.875H58.5852C58.4148 11.375 57.4261 10.9261 56.2386 11.0682C54.5966 11.2614 53.1875 12.6193 53.1875 14.858C53.1875 17.1932 54.3807 18.7557 56.2955 18.8295C57.5909 18.8864 58.4318 18.2841 58.6989 17.6136H58.767C58.9034 18.5284 59.892 18.9318 60.8636 18.8977C63.2898 18.8523 63.75 16.4659 63.75 14.0682C63.75 10.6477 61.4091 7.67045 57.0682 7.67045C52.517 7.67045 49.8409 10.4489 49.8352 14.9261C49.8409 19.5341 52.4489 22.1648 57.1477 22.1648ZM56.625 17.4375C55.142 17.4375 54.6307 16.1648 54.625 14.7898C54.6307 13.483 55.3636 12.4432 56.6477 12.4432C58.0398 12.4432 58.6648 13.0568 58.6705 14.7841C58.6761 16.5568 58.1023 17.4375 56.625 17.4375ZM68.1662 19.1932C69.6094 19.1932 70.4219 18.4602 70.7457 17.8068H70.8139V19H72.473V13.2045C72.473 10.6648 70.473 10.1591 69.0866 10.1591C67.5071 10.1591 66.0526 10.7955 65.4844 12.3864L67.081 12.75C67.331 12.1307 67.9673 11.5341 69.1094 11.5341C70.206 11.5341 70.7685 12.108 70.7685 13.0966V13.1364C70.7685 13.7557 70.1321 13.7443 68.5639 13.9261C66.9105 14.1193 65.2173 14.5511 65.2173 16.5341C65.2173 18.25 66.5071 19.1932 68.1662 19.1932ZM68.5355 17.8295C67.5753 17.8295 66.8821 17.3977 66.8821 16.5568C66.8821 15.6477 67.6889 15.3239 68.6719 15.1932C69.223 15.1193 70.5298 14.9716 70.7741 14.7273V15.8523C70.7741 16.8864 69.9503 17.8295 68.5355 17.8295ZM80.2642 15.3807C80.2699 16.8636 79.1676 17.5682 78.2131 17.5682C77.1619 17.5682 76.4347 16.8068 76.4347 15.6193V10.2727H74.7358V15.8239C74.7358 17.9886 75.9233 19.1136 77.5994 19.1136C78.9119 19.1136 79.804 18.4205 80.2074 17.4886H80.2983V19H81.9688V10.2727H80.2642V15.3807ZM88.3253 10.2727H86.5355V8.18182H84.8366V10.2727H83.5582V11.6364H84.8366V16.7898C84.831 18.375 86.0412 19.142 87.3821 19.1136C87.9219 19.108 88.2855 19.0057 88.4844 18.9318L88.1776 17.5284C88.0639 17.5511 87.8537 17.6023 87.581 17.6023C87.0298 17.6023 86.5355 17.4205 86.5355 16.4375V11.6364H88.3253V10.2727ZM93.7869 19.1761C96.2472 19.1761 97.8551 17.375 97.8551 14.6761C97.8551 11.9602 96.2472 10.1591 93.7869 10.1591C91.3267 10.1591 89.7188 11.9602 89.7188 14.6761C89.7188 17.375 91.3267 19.1761 93.7869 19.1761ZM93.7926 17.75C92.1847 17.75 91.4347 16.3466 91.4347 14.6705C91.4347 13 92.1847 11.5795 93.7926 11.5795C95.3892 11.5795 96.1392 13 96.1392 14.6705C96.1392 16.3466 95.3892 17.75 93.7926 17.75ZM106.291 12.4034C105.939 11.0455 104.876 10.1591 102.99 10.1591C101.018 10.1591 99.6207 11.1989 99.6207 12.7443C99.6207 13.983 100.371 14.8068 102.007 15.1705L103.484 15.4943C104.325 15.6818 104.717 16.0568 104.717 16.6023C104.717 17.2784 103.996 17.8068 102.882 17.8068C101.865 17.8068 101.212 17.3693 101.007 16.5114L99.3651 16.7614C99.6491 18.3068 100.933 19.1761 102.893 19.1761C105.001 19.1761 106.462 18.0568 106.462 16.4773C106.462 15.2443 105.678 14.483 104.075 14.1136L102.689 13.7955C101.729 13.5682 101.314 13.2443 101.32 12.6534C101.314 11.983 102.041 11.5057 103.007 11.5057C104.064 11.5057 104.553 12.0909 104.751 12.6761L106.291 12.4034ZM108.33 22.2727H110.028V17.642H110.131C110.438 18.1989 111.062 19.1705 112.653 19.1705C114.767 19.1705 116.301 17.4773 116.301 14.6534C116.301 11.8239 114.744 10.1591 112.636 10.1591C111.017 10.1591 110.432 11.1477 110.131 11.6875H109.989V10.2727H108.33V22.2727ZM109.994 14.6364C109.994 12.8125 110.79 11.6023 112.273 11.6023C113.812 11.6023 114.585 12.9034 114.585 14.6364C114.585 16.3864 113.79 17.7216 112.273 17.7216C110.812 17.7216 109.994 16.4716 109.994 14.6364ZM120.744 19.1932C122.188 19.1932 123 18.4602 123.324 17.8068H123.392V19H125.051V13.2045C125.051 10.6648 123.051 10.1591 121.665 10.1591C120.085 10.1591 118.631 10.7955 118.062 12.3864L119.659 12.75C119.909 12.1307 120.545 11.5341 121.688 11.5341C122.784 11.5341 123.347 12.108 123.347 13.0966V13.1364C123.347 13.7557 122.71 13.7443 121.142 13.9261C119.489 14.1193 117.795 14.5511 117.795 16.5341C117.795 18.25 119.085 19.1932 120.744 19.1932ZM121.114 17.8295C120.153 17.8295 119.46 17.3977 119.46 16.5568C119.46 15.6477 120.267 15.3239 121.25 15.1932C121.801 15.1193 123.108 14.9716 123.352 14.7273V15.8523C123.352 16.8864 122.528 17.8295 121.114 17.8295ZM130.99 19.1761C133.053 19.1761 134.388 17.9375 134.575 16.2386H132.922C132.706 17.1818 131.973 17.7386 131.001 17.7386C129.564 17.7386 128.638 16.5398 128.638 14.6364C128.638 12.767 129.581 11.5909 131.001 11.5909C132.081 11.5909 132.74 12.2727 132.922 13.0909H134.575C134.393 11.3295 132.956 10.1591 130.973 10.1591C128.513 10.1591 126.922 12.0114 126.922 14.6761C126.922 17.3068 128.456 19.1761 130.99 19.1761ZM140.153 19.1761C142.057 19.1761 143.403 18.2386 143.79 16.8182L142.182 16.5284C141.875 17.3523 141.136 17.7727 140.17 17.7727C138.716 17.7727 137.739 16.8295 137.693 15.1477H143.898V14.5455C143.898 11.392 142.011 10.1591 140.034 10.1591C137.602 10.1591 136 12.0114 136 14.6932C136 17.4034 137.58 19.1761 140.153 19.1761ZM137.699 13.875C137.767 12.6364 138.665 11.5625 140.045 11.5625C141.364 11.5625 142.227 12.5398 142.233 13.875H137.699Z" fill="#4F4F4F"/>
<path d="M64.4844 22.1989H144.648V23.4375H64.4844V22.1989Z" fill="#4F4F4F"/>
</svg>
